<?xml version="1.0" standalone="no"?><!DOCTYPE svg PUBLIC "-//W3C//DTD SVG 1.1//EN" "http://www.w3.org/Graphics/SVG/1.1/DTD/svg11.dtd"><svg t="1544513912424" class="icon" style="" viewBox="0 0 2164 1024" version="1.1" xmlns="http://www.w3.org/2000/svg" p-id="1426" xmlns:xlink="http://www.w3.org/1999/xlink" width="422.65625" height="200"><defs><style type="text/css"></style></defs><path d="M415.978716 451.019474q6.362805 0 27.041921-11.134909 19.883765-11.134909 31.814025-11.134908a28.302552 28.302552 0 0 1 7.953506 0.79535 42.865421 42.865421 0 0 1 16.702363-5.567454h4.772104q-8.748857 26.24657-39.767531 36.586128-15.111662 4.772104-70.786205 11.134909a328.300851 328.300851 0 0 0-48.516387 11.930259 197.187302 197.187302 0 0 1-42.153583 8.748857 127.256099 127.256099 0 0 1-15.907012-1.590701 131.145363 131.145363 0 0 0-16.702363-1.590701q-19.088415 0-26.246571 14.316311-3.976753 9.544207-7.158155 36.586128l-3.181403 30.223324q0 26.24657 45.334985 33.404725 15.111662-24.655869 81.125763-49.311738 94.646723-34.200077 159.865474-46.925686-10.339558 146.344513-8.748857 136.004955-31.018674 3.181402-44.539634 3.976753 0-19.883765-23.065168-55.674543l-16.702363-27.041921a32.728678 32.728678 0 0 0-19.883765-7.158155 33.170097 33.170097 0 0 0-25.45122 12.72561 52.175 52.175 0 0 0-11.930259 27.837271q-84.307165 27.837272-105.781632 47.721037 12.72561 7.158156 99.418827 14.316311 4.772104 0 38.176829 4.772104a118.451567 118.451567 0 0 1 19.088415 5.567454q11.134909 3.181402 15.907012 3.976753a88.144732 88.144732 0 0 0 17.497714-3.181402 86.693217 86.693217 0 0 1 19.088415-3.181403l19.088415-0.79535a45.251473 45.251473 0 0 1 18.293064 3.181402q25.45122 43.744284 42.153582 43.744284 29.427973 0 29.427973-40.562881a229.979607 229.979607 0 0 0-6.362805-42.153583 219.731515 219.731515 0 0 1-6.362805-44.539635v-4.772103a79.507224 79.507224 0 0 1 1.590702-12.72561 81.543322 81.543322 0 0 0 1.590701-13.520961v-16.702363a56.577266 56.577266 0 0 1 12.72561-27.04192 52.182954 52.182954 0 0 1 43.744284-22.269818 136.251514 136.251514 0 0 1 38.97218 7.953506 126.460748 126.460748 0 0 0 36.586128 7.953507 46.977384 46.977384 0 0 0 10.339558-0.795351 42.070071 42.070071 0 0 0 7.158156-23.065168q0-15.111662-19.088415-35.790778-22.269817-23.860518-25.45122-34.200076-3.976753 0-58.855945-10.339558a98.31329 98.31329 0 0 0-15.111662-1.590701h-1.590701a0.699909 0.699909 0 0 0 0.79535 0.79535q38.97218 14.316311 42.153583 31.018674-7.953506 3.976753-37.381479 3.976753a67.700244 67.700244 0 0 0-21.474467 2.386052q-12.72561-16.702363-18.293064-19.088415a16.86541 16.86541 0 0 1-8.748857 1.590702 67.557081 67.557081 0 0 1-12.725609-1.590702 208.262559 208.262559 0 0 1 22.269817-22.269817 118.535079 118.535079 0 0 0 22.269817-24.655869 117.361937 117.361937 0 0 0 4.772104-12.72561 79.137386 79.137386 0 0 1 5.567454-12.72561 163.583738 163.583738 0 0 1 11.134909-13.52096 160.625034 160.625034 0 0 0 11.930259-12.72561q51.69779-65.218751 51.69779-104.190931 0-50.107089-65.218751-50.107089a110.15606 110.15606 0 0 0-31.814024 4.772104 27.212921 27.212921 0 0 0-7.158156 3.181403 34.100658 34.100658 0 0 1-7.158155 3.976753q-9.544207 2.386052-27.837272 5.567454a158.911053 158.911053 0 0 0-27.837271 5.567454 50.266159 50.266159 0 0 0 1.590701-16.702363v-6.362805q1.590701-0.795351 46.925686-10.339558 30.223323-5.567454 31.814025-23.065168v-1.590701q0 7.953506-5.567454-25.451219l-4.772104-28.632623a186.708557 186.708557 0 0 1-7.158156-20.679116l0.795351-4.772103q2.386052-9.544207 19.088415-19.088415 16.702363-10.339558 19.883765-21.474467a281.768863 281.768863 0 0 0-38.97218 12.72561 211.205356 211.205356 0 0 1-39.767531 11.134909q4.772104 2.386052-22.269817-32.609376a88.411175 88.411175 0 0 0-19.883766-2.386051q-49.311738 0-56.469893 54.083841a13.874892 13.874892 0 0 0 5.567454 5.567455 18.412367 18.412367 0 0 1 5.567454 4.772103q-8.748857 5.567454-44.539634 13.520961-29.427973 5.567454-37.381479 20.679116l-2.386052 8.748857a30.887441 30.887441 0 0 1-2.386052 9.544207q7.158156 4.772104 7.158156 23.065168l-0.795351 11.134909a55.773962 55.773962 0 0 0 2.386052 17.497713 224.610991 224.610991 0 0 0-62.832699 14.316311q-44.539635 15.111662-58.855945 18.293064a87.067032 87.067032 0 0 0 3.976753-17.497713 49.594088 49.594088 0 0 1 3.181402-15.111662 132.402017 132.402017 0 0 1 15.907012-19.883765 33.834215 33.834215 0 0 0 10.339558-23.065168 24.445101 24.445101 0 0 0-0.79535-7.158156q-7.953506-4.772104-19.883766-29.427972-10.339558-21.474467-22.269817-24.65587a11.278072 11.278072 0 0 0-4.772104-0.79535l-13.52096 1.590701a31.078325 31.078325 0 0 1-10.339558-2.386052 143.493181 143.493181 0 0 0-18.293064 11.930259 93.421883 93.421883 0 0 1-18.293064 11.93026q-2.386052 9.544207-16.702363 26.24657a48.094852 48.094852 0 0 0-13.520961 29.427973l49.311738 35.790778a224.125827 224.125827 0 0 0-4.772103 25.451219l-4.772104 26.246571q-12.72561 2.386052-72.376906 17.497713a652.815832 652.815832 0 0 1-73.967607 15.111662 35.393102 35.393102 0 0 1-11.134909 9.544207 16.702363 16.702363 0 0 0-9.544207 9.544208 11.067304 11.067304 0 0 0-0.795351 4.772103 46.166127 46.166127 0 0 0 2.386052 11.134909 57.20957 57.20957 0 0 1 1.590701 11.930259 20.897837 20.897837 0 0 1-0.795351 6.362805c0 1.069747-1.328236 1.590701-3.976753 1.590701a3.388194 3.388194 0 0 0-3.181402 3.181403l0.79535 3.976753a17.18355 17.18355 0 0 1-3.976753 8.748857 32.072514 32.072514 0 0 0-5.567454 9.544207v3.976753a149.744637 149.744637 0 0 0 3.181403 22.269818 148.833961 148.833961 0 0 1 3.181402 25.451219l-0.795351 14.316311q1.590701 13.52096 16.702363 27.041921 15.111662 12.72561 27.837272 12.72561h0.795351q11.930259 0 28.632622-16.702363a123.048694 123.048694 0 0 0 14.316311-15.907012 99.915921 99.915921 0 0 1 15.111662-15.111662q15.111662-11.930259 66.014101-20.679116-7.953506 33.404726-9.544208 96.237425-3.181402 82.716464-4.772103 101.009528-8.748857 0-26.246571-1.590701-18.293064-1.590701-26.24657-1.590701a72.901838 72.901838 0 0 0-12.72561 0.79535q53.288491 15.111662 49.311738 14.316311 9.544207 12.72561 12.72561 47.721037 3.181402 31.018674 13.520961 40.562882a33.360982 33.360982 0 0 0 24.655869 9.544207q30.223323 0 30.223323-26.24657a89.079269 89.079269 0 0 0-3.976753-21.474467 75.61796 75.61796 0 0 1-4.772104-20.679116v-1.590701a24.918335 24.918335 0 0 1 1.590702-7.158156 37.488851 37.488851 0 0 0 0.79535-7.158155q-0.795351-4.772104-3.181402-13.520961a103.073463 103.073463 0 0 1-3.976753-14.316311 531.178886 531.178886 0 0 1-3.181403-62.832698 744.193665 744.193665 0 0 1 12.72561-142.367761q18.293064-15.907012 59.651296-24.655869 41.358232 23.860518 46.925687 24.655869 70.786205 86.693217 62.832698 76.353659a32.012862 32.012862 0 0 0-3.976753-10.339558 71.907649 71.907649 0 0 1-4.772103-9.544207 100.289736 100.289736 0 0 1 15.111661 14.316311q9.544207 10.339558 17.497714 10.339558h0.79535z m119.302593-62.037348q-6.362805-11.930259-24.655869-11.930259a28.032132 28.032132 0 0 0-15.907013 4.772103 24.039472 24.039472 0 0 1-0.79535-7.158155q0-19.883765 23.065168-28.632622l21.474466-6.362805a96.774286 96.774286 0 0 0 19.883766-6.362805 78.70392 78.70392 0 0 0-6.362805-19.088415 49.005528 49.005528 0 0 1-4.772104-18.293064q0.795351-18.293064 31.814025-42.153583a6.323037 6.323037 0 0 0 0.79535-3.976753 4.056288 4.056288 0 0 1 1.590702-3.976753l11.930259-3.976753q-7.953506 0-90.66997 30.223323v-3.976753q0-15.907012 31.814024-28.632622 3.976753-10.339558 33.404726-24.655869a14.316311 14.316311 0 0 0-8.748857-2.386052q-11.930259 0-12.725609 7.953506l-11.93026-9.544207q6.362805-11.930259 32.609376-11.930259a9.055067 9.055067 0 0 0 3.181402-4.772104 6.565619 6.565619 0 0 1 2.386052-4.772104 97.828126 97.828126 0 0 1 35.790778-7.158155q42.153583 0 42.153582 31.018674a38.17683 38.17683 0 0 1-0.79535 8.748857q-7.158156 35.790778-51.69779 89.079269-57.265244 68.400153-62.832699 77.94436z m125.665397-245.763341q9.544207-7.158156 19.883766-40.562881-8.748857-16.702363-14.316311-49.311738 14.316311-14.316311 15.907012-19.088415h-7.158156a62.037348 62.037348 0 0 0-27.837271 7.158156 34.888055 34.888055 0 0 0-18.293064-4.772104q-31.018674 0-32.609376 23.860518 0-3.181402 11.134909 32.609376 16.702363 50.902439 45.334985 50.902439z m-300.642533 98.623477a51.121161 51.121161 0 0 0-23.065168-5.567454q-2.386052 0-28.632622 4.772103 2.386052-22.269817 58.855946-60.446647 2.386052 2.386052 7.953506 18.293065a37.858689 37.858689 0 0 0 23.860519 8.748856q11.134909 0 51.69779-24.655869a55.769985 55.769985 0 0 1 1.590701 13.520961 38.17683 38.17683 0 0 1-2.386052 13.52096z m97.032776 248.149392a52.572676 52.572676 0 0 1 11.134908 15.111662q3.976753-3.976753 15.907012-18.293064a107.272914 107.272914 0 0 1 18.293065-17.497714 9.723161 9.723161 0 0 0 5.567454 1.590701q-3.976753 0 10.339558-2.386051 7.158156 3.181402 7.158156 16.702363a52.890816 52.890816 0 0 1-2.386052 16.702363q-98.623476 13.52096-120.097943 18.293064a7.687064 7.687064 0 0 0-3.976753 3.181402 8.593763 8.593763 0 0 1-3.181403 3.976753 51.07344 51.07344 0 0 1-11.930259-3.976753l-11.930259-3.181402q9.544207-11.930259 33.404725-21.474467a313.650492 313.650492 0 0 0 38.17683-15.907012c2.111656 4.251149 3.181402 5.567454 3.181403 3.976753a2.310494 2.310494 0 0 0-0.795351 1.590701 129.475127 129.475127 0 0 1 15.111662-7.158156l0.79535 0.795351a7.436528 7.436528 0 0 1-2.386052 3.181403 6.529829 6.529829 0 0 0-2.386051 3.976753v0.79535z m-55.674544 158.274773a221.139285 221.139285 0 0 1-22.269817 0.795351 490.274004 490.274004 0 0 1-72.376906-5.567455l68.400153-39.767531a160.660825 160.660825 0 0 1 13.520961 22.269818 221.652287 221.652287 0 0 0 12.725609 22.269817z m33.404726-247.354042q-14.316311 3.976753-23.065168 5.567455a32.3827 32.3827 0 0 1-2.386051-11.134909q0-23.065168 37.381479-23.065168h3.181402l3.181402 11.930259c1.590701 0 2.386052-1.316305 2.386052-3.976753a10.872443 10.872443 0 0 1 1.590702 7.158156 10.737233 10.737233 0 0 0 1.590701 7.158155z m15.111662-105.781632q-50.107089 16.702363-51.69779 16.702363 5.567454-12.72561 50.107089-39.767531 1.590701 3.181402 1.590701 19.088415v3.976753z m206.79116 176.567837q-3.181402 8.748857-19.883765 10.339558l-27.837272 3.181403-8.748857-23.065168z m816.029733 87.488568q-24.655869-20.679116-63.62805-112.144437c0-1.05384-0.795351-1.590701-2.386051-1.590701-2.123586 0-3.181402-0.258489-3.181403-0.795351v-0.79535h4.772104l-7.158156-10.339559a37.44113 37.44113 0 0 1-6.362805-11.930259 4.525545 4.525545 0 0 0 3.181403 1.590701c0.520955 0 0.795351-0.520955 0.79535-1.590701v-0.79535a84.454305 84.454305 0 0 1-5.567454-23.065168 74.472655 74.472655 0 0 0-6.362805-23.860519v7.158156a9.214137 9.214137 0 0 1-1.590701 6.362805 104.055721 104.055721 0 0 0-8.748857-32.609376 210.242982 210.242982 0 0 1-12.72561-31.814024l-0.79535-3.181403 0.79535-4.772103a9.997557 9.997557 0 0 0-4.772103-8.748857l-0.795351 4.772104a59.734808 59.734808 0 0 0 3.181402 16.702363q3.976753 11.930259 4.772104 15.907012l-2.386052 11.930259a21.808514 21.808514 0 0 0 3.976753 4.772104 12.196702 12.196702 0 0 1 3.976753 3.976753v0.79535a2.246865 2.246865 0 0 1-1.590701 1.590702 1.403794 1.403794 0 0 0-1.590701 1.590701v0.795351a32.513933 32.513933 0 0 1 12.72561 24.655869v3.976753q-25.45122-31.814025-41.358232-108.167684a13.63231 13.63231 0 0 0 6.362805-2.386052 9.587952 9.587952 0 0 1 4.772103-2.386052h1.590702q1.590701 16.702363 7.158155 19.088415 1.590701-3.181402 1.590701-20.679116v-3.976753l23.860519-6.362805q13.52096-15.907012 58.060595-40.562881 1.590701-8.748857 12.72561-20.679116 10.339558-11.134909 11.134908-20.679117 0-10.339558-9.544207-23.860518-15.111662-19.088415-69.195504-19.088415l-17.497713 0.795351q-7.953506 0.795351-138.391007 27.837271v-5.567454q0-40.562881 37.381478-64.4234a61.922022 61.922022 0 0 0 4.772104-23.065168 46.452453 46.452453 0 0 0-20.679116-40.562881 83.595327 83.595327 0 0 0-15.111662-7.158156 77.459197 77.459197 0 0 1-15.907012-7.158155 45.334985 45.334985 0 0 1-6.362805-5.567455 15.907012 15.907012 0 0 0-5.567454-3.976753q-8.748857-3.181402-38.97218-3.181402a93.716163 93.716163 0 0 1-14.316311-0.795351q-54.879193 51.69779-54.879193 60.446647a16.801782 16.801782 0 0 0 7.953506 14.316311 7.742738 7.742738 0 0 0-1.590701 5.567455 26.942502 26.942502 0 0 1-1.590701 6.362804q16.702363 8.748857 26.24657 38.972181 2.386052 6.362805 7.953506 27.041921a145.899117 145.899117 0 0 0 7.953506 25.451219q-30.223323 27.041921-108.167683 46.925687-3.181402-9.544207-4.772104-41.358232-1.590701-27.837272-8.748857-38.972181-3.976753-7.158156-25.45122-26.24657-28.632622-24.655869-49.311738-24.655869-19.088415 0-44.539634 20.679116-73.967607 27.041921-73.967608 105.781632v4.772104a2.223005 2.223005 0 0 0 1.590702 1.590701 2.565006 2.565006 0 0 1 1.590701 2.386052l-1.590701 5.567454a36.275942 36.275942 0 0 0 3.181402 11.134909 37.695642 37.695642 0 0 0-0.795351 8.748857q0 10.339558 18.293065 41.358232a55.161542 55.161542 0 0 1 11.134908 5.567454 66.769684 66.769684 0 0 0 11.134909 6.362805q46.130336 19.883765 45.334985 18.293064a12.244423 12.244423 0 0 1 2.386052 6.362805l2.386052 7.158155 9.544207 12.72561a64.821075 64.821075 0 0 1 9.544207 12.72561q17.497714 25.45122 46.130336 90.66997l-2.386052-15.907012a4.60508 4.60508 0 0 1 0.795351-3.181402 111.170132 111.170132 0 0 0 11.930259 26.24657q0 3.181402-4.772103-19.883765a10.045278 10.045278 0 0 1 3.181402 5.567454 5.567454 5.567454 0 0 0 3.181402 4.772104l-0.79535-7.158156a33.611517 33.611517 0 0 1-1.590701-8.748857 8.60967 8.60967 0 0 1 2.386051-6.362805 20.428581 20.428581 0 0 1 3.976754 9.544208 16.43592 16.43592 0 0 0 3.181402 9.544207l-1.590701-10.339558a4.573266 4.573266 0 0 1 1.590701-3.181402q1.590701 11.930259 4.772104 13.52096a23.900286 23.900286 0 0 0-0.795351-5.567454 17.847668 17.847668 0 0 1-1.590701-5.567454 4.60508 4.60508 0 0 1 0.79535-3.181403c0 4.251149 1.057816 6.362805 3.181403 6.362805a0.703885 0.703885 0 0 0 0.795351-0.795351 38.451226 38.451226 0 0 1-4.772104-16.702363q61.241997-40.562881 101.804879-42.153582v14.316311q41.358232 10.339558 50.902439 22.269817a30.756208 30.756208 0 0 1-21.474466 7.953506 93.199185 93.199185 0 0 1-27.837272-6.362805 101.128831 101.128831 0 0 0-27.837272-6.362805 27.996342 27.996342 0 0 0-21.474466 9.544208q0.795351 17.497714 19.088415 21.474466 29.427973 7.158156 30.223323 7.953507a487.764673 487.764673 0 0 1-43.744284 32.609375 43.255143 43.255143 0 0 0-27.837271-9.544208 81.420043 81.420043 0 0 0-48.516388 16.702363q-23.860518 18.293064-23.860519 38.972181a34.911915 34.911915 0 0 0 4.772104 16.702363 534.921011 534.921011 0 0 0-54.879192 31.814024 304.989124 304.989124 0 0 1-57.265245 30.223324 51.029696 51.029696 0 0 1-3.181402-15.111662q0-25.45122 22.269817-58.855946l19.883765-27.837271q11.930259-16.702363 17.497714-25.45122-78.739711 85.102516-78.739711 147.139864a24.711544 24.711544 0 0 0 6.362805 18.293064h7.158155q15.111662 0 54.083842-27.041921h2.386052a33.43654 33.43654 0 0 0 23.860519-11.134908 135.348791 135.348791 0 0 1 17.497713-15.111662l3.976753-0.795351a4.577243 4.577243 0 0 0 3.181403-0.79535q2.386052-1.590701 15.111661-12.72561a40.861138 40.861138 0 0 1 18.293065-9.544208l13.52096 7.158156q-158.274773 90.66997-169.409681 93.056022a30.513626 30.513626 0 0 0 0.79535 10.339558q42.153583-11.134909 92.260672-46.130336 64.4234-44.539635 84.307165-54.083842 5.567454 7.953506 22.269818 11.93026a113.444835 113.444835 0 0 1 24.655869 8.748856q10.339558 7.158156 27.837271 35.790778 11.930259 19.088415 23.860519 40.562882v-1.590702a23.816774 23.816774 0 0 0-0.795351-5.567454l-0.79535-4.772104a3.181402 3.181402 0 0 1 1.590701-3.181402 25.892639 25.892639 0 0 1 4.772103 7.953506 26.000012 26.000012 0 0 0 3.976754 7.953506v-3.976753q0-24.655869 2.386051-29.427973h3.181403a94.018396 94.018396 0 0 0 25.45122-4.772103 109.36071 109.36071 0 0 1 22.269817-3.976753 25.29215 25.29215 0 0 1 12.72561 3.181402l19.088414 43.744284q35.790778 12.72561 32.609376 12.72561a24.305915 24.305915 0 0 0 7.158155-0.795351q8.748857-3.181402 19.088415-33.404726 16.702363-45.334985 78.739711-104.986281 97.032775 77.14901 133.618904 77.14901 7.953506 0 17.497713-15.111662 8.748857-13.52096 8.748857-17.497714 0-10.339558-36.586128-69.990854v11.134909z m-73.172257-23.065168q-23.860518-0.795351-45.334985-20.679116-25.45122-23.065168-38.97218-27.041921-0.795351-5.567454-15.111662-18.293064l-25.45122-2.386052a20.734791 20.734791 0 0 0-8.748857 4.772104 13.345983 13.345983 0 0 1-7.158155 4.772103l-5.567454 0.795351q-11.930259 0-32.609376-9.544207-23.065168-11.134909-31.018674-11.93026l-0.79535-1.590701q0-2.386052 12.725609-12.72561 90.66997-90.66997 103.395581-110.553735a139.953871 139.953871 0 0 1-6.362805-20.679116l15.907012-7.158156a55.101891 55.101891 0 0 0 15.111662-7.953506q9.544207 39.767531 34.995427 120.097943 24.655869 76.353659 34.995427 120.097943z m-74.762958-338.024012l2.386052-0.795351a2.966658 2.966658 0 0 1 1.590701 2.386052 6.323037 6.323037 0 0 0 0.795351-3.976753l-0.795351-10.339558a4.219335 4.219335 0 0 1 4.772104-4.772104c1.057816 0 1.590701 0.795351 1.590701 2.386052l-0.795351 3.976753c0 2.127563 0.520955 3.181402 1.590702 3.181403a25.053544 25.053544 0 0 0 1.590701-5.567454 10.840629 10.840629 0 0 1 2.386052-5.567455 219.997957 219.997957 0 0 1 50.107089-6.362805q34.995427 0 46.925686 15.907013-1.590701 3.976753-75.558309 70.786204a15.390034 15.390034 0 0 1-2.386051-10.339558c-1.069747 0-1.590701 2.660448-1.590702 7.953507v1.590701a9.146532 9.146532 0 0 1-1.590701-6.362805 25.594383 25.594383 0 0 0-1.590701-5.567454q-1.590701 1.590701-1.590701 18.293064v3.976753q-13.52096 7.953506-11.93026 6.362805a105.900935 105.900935 0 0 1-2.386051-22.269817l1.590701-34.995428a72.806395 72.806395 0 0 0-3.976753-27.041921 333.275769 333.275769 0 0 0-3.181403 42.153583q-1.590701 30.223323-3.181402 42.153583a24.234333 24.234333 0 0 1-2.386052-7.158156 4.573266 4.573266 0 0 0-1.590701 3.181403l1.590701 11.134908a246.956366 246.956366 0 0 0-33.404726 21.474467q-10.339558-1.590701-27.041921-17.497714-17.497714-16.702363-27.837272-18.293064a24.445101 24.445101 0 0 0-7.158155-0.79535q-12.72561 0-31.814025 22.269817a11.278072 11.278072 0 0 0-4.772103-0.795351 8.641484 8.641484 0 0 0-9.544208 7.158156 100.802737 100.802737 0 0 0-28.632622-15.907012q97.032775-46.130336 159.865474-68.400153l-5.567454-0.795351a100.166457 100.166457 0 0 0-17.497714 2.386052 113.735138 113.735138 0 0 1-18.293064 2.386052 24.464985 24.464985 0 0 1-10.339558-1.590702l-37.381479 14.316311a39.687996 39.687996 0 0 0-12.72561-4.772103 24.178659 24.178659 0 0 1-12.72561-4.772104 3.213216 3.213216 0 0 1 3.976753-3.181402 15.907012 15.907012 0 0 1 7.158156 1.590701q63.628049-33.404726 111.349086-34.200077v15.111662z m-90.66997 324.503052q-40.562881 76.353659-43.744284 78.739711-17.497714 10.339558-56.469894 11.930259v-3.976753a280.961582 280.961582 0 0 0-6.362805-34.995427q28.632622-34.200077 106.576983-51.69779z m-167.81898-130.437502a114.614001 114.614001 0 0 0-24.655869 19.088415 180.071356 180.071356 0 0 1-22.269818 19.088415 11.437142 11.437142 0 0 1-3.976753-9.544207l3.976753-18.293065 2.386052-21.474466q16.702363-50.107089 108.963035-86.693217-2.386052 11.134909-17.497714 24.655869-15.907012 15.111662-19.883765 23.860518a28.851344 28.851344 0 0 0-2.386052 8.748857l-2.386052 8.748857a89.329804 89.329804 0 0 1-12.72561 14.316311 32.096374 32.096374 0 0 0-9.544207 17.497713z m147.935214 103.395581q-18.293064 4.772104-56.469893 17.497713-46.925686 13.52096-49.311739 13.520961h-5.567454q1.590701-11.134909 28.632622-31.018674 26.24657-19.088415 23.065168-18.293065a44.328867 44.328867 0 0 1 8.748857-1.590701 62.482744 62.482744 0 0 1 26.24657 7.953506 171.398058 171.398058 0 0 0 24.655869 11.93026z m139.981709-290.302975a27.896923 27.896923 0 0 0 1.590701-8.748857 58.092409 58.092409 0 0 0-3.181402-18.293064l-0.795351 14.316311a28.632622 28.632622 0 0 0 2.386052 12.72561z m-27.041921 25.451219a25.797197 25.797197 0 0 0-3.181403-11.134908v2.386052a34.788636 34.788636 0 0 0 0.795351 11.134908z" p-id="1427"></path></svg>